<?xml version="1.0" encoding="UTF-8" standalone="no"?>
<svg
   xmlns:dc="http://purl.org/dc/elements/1.1/"
   xmlns:cc="http://creativecommons.org/ns#"
   xmlns:rdf="http://www.w3.org/1999/02/22-rdf-syntax-ns#"
   xmlns:svg="http://www.w3.org/2000/svg"
   xmlns="http://www.w3.org/2000/svg"
   xmlns:sodipodi="http://sodipodi.sourceforge.net/DTD/sodipodi-0.dtd"
   xmlns:inkscape="http://www.inkscape.org/namespaces/inkscape"
   width="210mm"
   height="297mm"
   viewBox="0 0 210 297"
   version="1.1"
   id="svg8"
   inkscape:version="1.0.2 (e86c8708, 2021-01-15)"
   sodipodi:docname="phone.svg"
   inkscape:export-filename="/Users/habbi/Documents/STAGE-PPA/phone.png"
   inkscape:export-xdpi="96"
   inkscape:export-ydpi="96">
  <defs
     id="defs2" />
  <sodipodi:namedview
     id="base"
     pagecolor="#ffffff"
     bordercolor="#666666"
     borderopacity="1.0"
     inkscape:pageopacity="0.0"
     inkscape:pageshadow="2"
     inkscape:zoom="0.23911323"
     inkscape:cx="240.15737"
     inkscape:cy="1002.2641"
     inkscape:document-units="mm"
     inkscape:current-layer="g942"
     inkscape:document-rotation="0"
     showgrid="false"
     inkscape:window-width="849"
     inkscape:window-height="785"
     inkscape:window-x="0"
     inkscape:window-y="25"
     inkscape:window-maximized="0" />
  <metadata
     id="metadata5">
    <rdf:RDF>
      <cc:Work
         rdf:about="">
        <dc:format>image/svg+xml</dc:format>
        <dc:type
           rdf:resource="http://purl.org/dc/dcmitype/StillImage" />
        <dc:title />
      </cc:Work>
    </rdf:RDF>
  </metadata>
  <g
     inkscape:label="Calque 1"
     inkscape:groupmode="layer"
     id="layer1">
    <g
       id="g942"
       transform="matrix(0.26458333,0,0,0.26458333,0.3183711,44.25168)">
      <path
         d="m 967.36814,233.05483 h -3.99878 V 123.50949 A 63.40184,63.40184 0 0 0 899.96757,60.10758 H 667.88084 a 63.40185,63.40185 0 0 0 -63.402,63.40172 v 600.97441 a 63.40186,63.40186 0 0 0 63.40179,63.40191 h 232.08663 a 63.40186,63.40186 0 0 0 63.402,-63.40167 V 311.03107 h 3.99884 z"
         transform="translate(-232.63186,-60.10758)"
         fill="#3f3d56"
         id="path833" />
      <path
         d="m 902.52561,76.60256 h -30.295 a 22.49484,22.49484 0 0 1 -20.82715,30.99052 H 718.444 A 22.4948,22.4948 0 0 1 697.61685,76.60252 h -28.29558 a 47.34781,47.34781 0 0 0 -47.34784,47.34774 v 600.09259 a 47.34781,47.34781 0 0 0 47.34777,47.34784 h 233.20441 a 47.3478,47.3478 0 0 0 47.34784,-47.34778 v 0 V 123.9503 A 47.34776,47.34776 0 0 0 902.52561,76.60256 Z"
         transform="translate(-232.63186,-60.10758)"
         fill="#ffffff"
         id="path835" />
      <path
         d="m 798.1627,728.88642 a 89.85864,89.85864 0 1 1 66.44775,-29.41327 l 18.76538,21.03576 -9.36432,3.97211 c -14.48639,6.14472 -28.66235,0.16559 -36.619,-4.60626 a 89.97151,89.97151 0 0 1 -39.22981,9.01166 z m 0,-164.94757 a 75.18442,75.18442 0 1 0 36.14392,141.12371 l 4.00873,-2.20269 3.72723,2.65216 A 39.4221,39.4221 0 0 0 856.267,712.02 l -11.80835,-13.23675 5.17614,-4.8642 a 74.47632,74.47632 0 0 0 23.71234,-54.79572 75.26973,75.26973 0 0 0 -75.18443,-75.18448 z"
         transform="translate(-232.63186,-60.10758)"
         fill="#e6e6e6"
         id="path837" />
      <path
         d="m 880.63645,639.12317 a 82.44129,82.44129 0 1 0 -42.8197,72.32837 c 5.70105,4.05634 19.609,12.147 33.34833,6.31909 L 854.6265,699.23126 a 82.23982,82.23982 0 0 0 26.00995,-60.10809 z"
         transform="translate(-232.63186,-60.10758)"
         fill="#ffffff"
         id="path839" />
      <rect
         x="523.05396"
         y="562.15271"
         width="58.932159"
         height="5.4727201"
         fill="#6c63ff"
         id="rect841"
         style="fill:#ff9900;fill-opacity:1" />
      <rect
         x="523.05396"
         y="581.08453"
         width="102.71378"
         height="5.4727201"
         fill="#e6e6e6"
         id="rect843" />
      <rect
         x="523.05396"
         y="600.0163"
         width="102.61319"
         height="5.4727201"
         fill="#e6e6e6"
         id="rect845" />
      <path
         d="m 798.1627,329.88639 a 89.85859,89.85859 0 1 1 66.44775,-29.41324 l 18.76538,21.03579 -9.36432,3.97211 c -14.48639,6.14472 -28.66235,0.16556 -36.619,-4.60629 a 89.9719,89.9719 0 0 1 -39.22981,9.01163 z m 0,-164.94756 a 75.18443,75.18443 0 1 0 36.14392,141.12373 l 4.00873,-2.20266 3.72723,2.65216 A 39.4221,39.4221 0 0 0 856.267,313.02 l -11.80835,-13.23675 5.17614,-4.86417 a 74.4765,74.4765 0 0 0 23.71234,-54.79578 75.26971,75.26971 0 0 0 -75.18444,-75.18444 z"
         transform="translate(-232.63186,-60.10758)"
         fill="#e6e6e6"
         id="path847" />
      <path
         d="m 880.63645,240.1232 a 82.44137,82.44137 0 1 0 -42.8197,72.32837 c 5.70105,4.05631 19.609,12.14707 33.34833,6.31906 l -16.53858,-18.5394 a 82.23979,82.23979 0 0 0 26.00995,-60.10803 z"
         transform="translate(-232.63186,-60.10758)"
         fill="#ffffff"
         id="path849" />
      <rect
         x="523.05396"
         y="163.15269"
         width="58.932159"
         height="5.4727001"
         fill="#6c63ff"
         id="rect851"
         style="fill:#ff9900;fill-opacity:1" />
      <rect
         x="523.05396"
         y="182.0845"
         width="102.71378"
         height="5.4727001"
         fill="#e6e6e6"
         id="rect853" />
      <rect
         x="523.05396"
         y="201.01633"
         width="102.61319"
         height="5.4727001"
         fill="#e6e6e6"
         id="rect855" />
      <circle
         cx="679.7677"
         cy="264.44629"
         r="13"
         fill="#e6e6e6"
         id="circle857" />
      <circle
         cx="679.7677"
         cy="663.44629"
         r="13"
         fill="#e6e6e6"
         id="circle859" />
      <path
         d="m 625.30534,536.11564 c -9.5135,5.70547 -26.46313,12.85456 -43.78391,5.50757 l -11.19653,-4.74934 22.437,-25.15166 a 107.15648,107.15648 0 1 1 32.5434,24.39343 z"
         transform="translate(-232.63186,-60.10758)"
         fill="#6c63ff"
         id="path861"
         style="fill:#3f3d56;fill-opacity:1" />
      <path
         d="m 762.59857,439.06616 a 98.6152,98.6152 0 0 0 -89.895,-98.22284 c 2.87241,-0.25161 5.7779,-0.38776 8.71557,-0.38776 a 98.6106,98.6106 0 0 1 0,197.22116 c -2.93324,0 -5.83375,-0.13791 -8.7018,-0.389 a 98.61525,98.61525 0 0 0 89.88123,-98.22156 z"
         transform="translate(-232.63186,-60.10758)"
         opacity="0.1"
         style="isolation:isolate"
         id="path863" />
      <rect
         x="382.95642"
         y="359.29428"
         width="70.462822"
         height="6.5434799"
         fill="#ffffff"
         id="rect865" />
      <rect
         x="382.95642"
         y="381.93033"
         width="122.81076"
         height="6.5434799"
         fill="#ffffff"
         id="rect867" />
      <rect
         x="382.95642"
         y="404.56631"
         width="122.69052"
         height="6.5434799"
         fill="#ffffff"
         id="rect869" />
    </g>
  </g>
</svg>
